<?xml version="1.0" standalone="no"?>
<!DOCTYPE svg PUBLIC "-//W3C//DTD SVG 20010904//EN"
 "http://www.w3.org/TR/2001/REC-SVG-20010904/DTD/svg10.dtd">
<svg version="1.0" xmlns="http://www.w3.org/2000/svg"
 width="200.000000pt" height="200.000000pt" viewBox="0 0 200.000000 200.000000"
 preserveAspectRatio="xMidYMid meet">
<metadata>
Created by potrace 1.14, written by Peter Selinger 2001-2017
</metadata>
<g transform="translate(0.000000,200.000000) scale(0.100000,-0.100000)"
fill="#000000" stroke="none">
<path d="M766 1855 c-15 -14 -24 -25 -20 -25 3 0 19 11 36 25 16 14 25 25 20
25 -5 0 -21 -11 -36 -25z"/>
<path d="M820 1865 c-7 -9 -11 -17 -8 -20 2 -2 12 4 21 15 9 11 13 20 8 20 -5
0 -14 -7 -21 -15z"/>
<path d="M895 1870 c-3 -5 -1 -10 4 -10 6 0 11 5 11 10 0 6 -2 10 -4 10 -3 0
-8 -4 -11 -10z"/>
<path d="M925 1863 c-13 -29 -14 -43 -3 -43 6 0 8 6 5 14 -3 7 0 19 6 25 6 6
8 13 5 16 -3 3 -9 -2 -13 -12z"/>
<path d="M976 1865 c-8 -8 -19 -15 -25 -15 -6 0 -11 -4 -11 -8 0 -17 26 -8 43
15 20 26 16 31 -7 8z"/>
<path d="M690 1844 c-5 -12 -17 -27 -26 -32 -16 -9 -15 -12 12 -36 16 -14 32
-26 36 -26 4 0 5 -11 2 -24 -3 -17 3 -28 22 -41 14 -9 28 -15 30 -12 2 2 -7
10 -21 17 -14 7 -25 17 -25 22 0 5 5 6 10 3 6 -3 10 -1 10 4 0 6 -4 11 -10 11
-5 0 -9 4 -7 8 1 4 -11 20 -27 35 -26 24 -27 28 -12 42 9 9 16 24 16 33 0 11
3 13 11 5 8 -8 8 -17 0 -32 -8 -13 -8 -27 -3 -37 8 -14 10 -14 15 -1 3 9 14
14 24 13 10 -2 12 -1 5 1 -7 3 -10 9 -7 14 4 5 2 9 -3 9 -6 0 -13 -7 -16 -16
-4 -9 -9 -15 -11 -12 -8 7 20 69 28 63 4 -3 5 -2 2 2 -13 17 -47 9 -55 -13z"/>
<path d="M860 1859 c0 -5 5 -7 10 -4 6 3 10 8 10 11 0 2 -4 4 -10 4 -5 0 -10
-5 -10 -11z"/>
<path d="M1003 1856 c-6 -8 -9 -17 -6 -20 4 -3 1 -6 -5 -6 -7 0 -12 -5 -12
-11 0 -5 4 -8 9 -4 5 3 11 0 14 -7 2 -7 3 -5 2 4 -2 9 4 26 12 37 16 23 5 28
-14 7z"/>
<path d="M1073 1860 c-28 -11 -29 -21 -3 -43 11 -9 20 -12 20 -7 0 6 -7 13
-15 16 -21 9 -19 24 4 24 11 0 23 5 26 10 7 12 -2 12 -32 0z"/>
<path d="M639 1858 c-1 -2 -3 -15 -5 -30 l-3 -28 25 27 c30 32 31 43 2 17 -19
-17 -21 -17 -15 -1 4 9 4 17 2 17 -3 0 -6 -1 -6 -2z"/>
<path d="M817 1828 c-15 -15 -24 -28 -20 -28 4 0 1 -4 -7 -10 -8 -5 -12 -11
-9 -14 3 -3 20 12 38 35 39 48 38 57 -2 17z"/>
<path d="M1170 1853 c0 -7 -14 -10 -32 -8 -18 2 -25 1 -15 -1 9 -3 15 -10 12
-15 -4 -5 -1 -9 4 -9 6 0 11 5 11 11 0 5 4 8 9 4 11 -6 26 13 17 22 -3 4 -6 1
-6 -4z"/>
<path d="M776 1829 c-11 -11 -15 -19 -9 -19 12 0 38 28 32 34 -2 2 -13 -5 -23
-15z"/>
<path d="M832 1800 c-28 -27 -47 -50 -43 -50 5 0 29 21 55 48 51 52 63 47 16
-8 -24 -28 -27 -36 -15 -43 8 -4 21 -17 30 -30 8 -12 15 -17 15 -11 0 6 -9 20
-20 32 l-21 22 26 34 c25 33 32 56 16 56 -4 0 -31 -22 -59 -50z"/>
<path d="M1173 1824 c-13 -14 -23 -29 -23 -35 0 -5 11 2 25 17 14 15 25 31 25
35 0 12 -1 11 -27 -17z"/>
<path d="M567 1829 c-11 -7 -16 -18 -13 -35 3 -13 0 -24 -6 -24 -5 0 -7 -7 -4
-15 18 -45 15 -46 -22 -8 -35 36 -43 40 -58 28 -17 -12 -14 -16 30 -60 27 -26
46 -40 42 -30 -3 9 -6 19 -6 21 0 2 -7 4 -16 4 -8 0 -13 4 -10 8 3 5 -6 15
-19 22 -26 14 -33 30 -13 30 21 0 88 -77 82 -94 -3 -9 -1 -16 4 -16 6 0 9 12
6 27 -4 22 -3 24 10 14 8 -7 13 -18 10 -26 -3 -7 -1 -16 5 -20 17 -10 13 -21
-14 -33 -19 -9 -25 -9 -25 0 0 6 -9 3 -21 -8 -20 -18 -21 -18 -35 1 -21 28
-16 44 5 18 16 -19 20 -20 25 -8 4 10 14 14 31 11 14 -3 25 0 25 6 0 5 -7 7
-16 4 -9 -3 -25 4 -40 19 -13 13 -24 20 -24 15 0 -5 7 -15 15 -24 9 -8 11 -17
6 -21 -13 -7 -41 34 -34 51 3 8 0 14 -7 14 -6 0 -9 -4 -6 -9 3 -5 -6 -17 -19
-27 -14 -10 -25 -23 -25 -28 0 -5 11 1 25 14 26 25 36 12 10 -14 -8 -8 -15
-18 -15 -22 0 -3 7 -1 15 6 10 9 15 9 15 1 0 -6 0 -13 0 -16 0 -3 -3 -5 -7 -6
-5 0 -17 -8 -27 -17 -18 -16 -19 -16 -12 2 4 12 0 26 -10 37 -16 18 -16 20 -1
37 10 10 17 22 17 26 0 3 -25 -20 -56 -51 -31 -32 -60 -57 -65 -56 -5 2 -9 -2
-9 -7 0 -19 20 -10 54 26 33 34 36 36 52 20 18 -19 12 -35 -8 -19 -10 8 -20 2
-38 -21 -19 -23 -20 -27 -5 -16 11 8 23 19 26 24 4 5 12 5 19 1 17 -10 -48
-45 -69 -37 -9 3 -12 1 -7 -6 6 -10 -7 -18 -16 -10 -2 1 -12 -6 -23 -15 -11
-9 -24 -17 -28 -16 -5 0 -16 -8 -24 -18 -14 -17 -14 -17 -8 2 13 38 14 55 4
55 -6 0 -9 -6 -6 -12 8 -23 -25 -72 -86 -131 -58 -54 -60 -59 -48 -80 13 -20
13 -21 -3 -8 -15 13 -19 13 -27 0 -5 -8 -9 -20 -9 -26 0 -7 -5 -13 -11 -13 -5
0 -7 -4 -4 -10 3 -5 2 -10 -3 -10 -9 0 -14 -12 -30 -80 -19 -80 12 -234 62
-305 11 -16 19 -31 17 -33 -5 -6 82 -122 91 -122 5 0 6 -4 3 -10 -3 -5 1 -10
9 -10 9 0 16 -6 16 -13 0 -14 119 -132 170 -167 19 -14 44 -32 54 -42 11 -10
28 -20 38 -24 10 -3 18 -9 18 -14 0 -4 57 -36 126 -71 126 -63 133 -66 169
-71 11 -2 25 -8 32 -14 13 -12 231 -13 251 -1 6 5 17 5 24 1 7 -4 8 -3 4 4 -5
8 0 12 13 12 12 0 21 4 21 10 0 5 7 6 17 3 12 -5 14 -3 8 7 -5 9 -4 11 3 6 6
-4 26 1 44 11 18 9 35 18 38 19 3 1 15 5 28 9 14 5 21 13 18 22 -5 11 -1 11
15 2 15 -8 19 -8 15 0 -4 6 -2 11 4 11 6 0 8 5 4 12 -5 8 0 7 11 -2 10 -8 16
-10 12 -3 -4 7 5 20 21 32 23 16 32 18 43 8 7 -7 5 -1 -6 12 -11 14 -15 21 -8
18 6 -4 15 -3 18 3 5 8 12 7 23 -2 15 -11 15 -11 4 4 -11 14 -10 19 10 32 12
9 19 16 15 16 -4 0 5 12 20 28 15 15 42 43 59 62 40 45 71 64 77 47 4 -9 6 -9
6 0 1 6 -5 18 -12 25 -11 11 -10 18 5 43 10 17 18 26 19 20 0 -5 4 -1 9 10 6
14 9 15 9 5 1 -9 -8 -23 -19 -33 -24 -20 -26 -37 -4 -37 10 0 14 5 10 16 -3 8
-2 12 4 9 6 -3 10 -2 10 4 0 5 9 12 20 16 11 3 19 12 17 18 -1 7 5 11 14 11 9
-1 16 6 15 15 -1 11 7 16 21 15 13 -1 20 2 18 7 -3 4 -14 6 -25 4 -13 -3 -17
1 -13 11 3 8 0 14 -6 14 -6 0 -11 -4 -11 -8 0 -5 -12 -15 -27 -23 -48 -24 -49
-22 -5 10 35 26 46 30 58 20 11 -9 14 -8 14 5 0 9 -5 16 -12 16 -6 0 -8 3 -5
6 4 4 14 1 24 -7 14 -12 16 -12 8 0 -6 11 -4 13 8 8 10 -3 17 -2 17 3 0 6 -4
10 -10 10 -5 0 -10 5 -10 11 0 5 3 8 8 6 4 -2 15 4 25 15 11 12 13 18 5 18
-17 -1 -43 -21 -51 -40 -5 -11 -6 -10 -4 4 1 10 18 27 37 38 21 11 34 25 32
34 -2 9 1 13 6 10 22 -13 19 23 -4 43 -30 26 -34 26 -31 0 1 -12 -4 -23 -11
-25 -7 -1 -8 0 -2 3 20 9 10 20 -20 20 -16 0 -30 -2 -30 -4 0 -8 25 -30 40
-36 13 -4 12 -6 -1 -6 -9 -1 -24 8 -34 19 -17 19 -17 21 1 43 10 12 23 25 29
29 5 4 6 11 1 15 -4 4 -16 -3 -27 -16 -10 -13 -19 -19 -19 -13 0 20 32 43 51
37 23 -8 24 1 3 22 -12 13 -18 13 -24 4 -5 -8 -10 -9 -14 -3 -11 18 26 23 45
6 24 -22 24 -24 -7 -57 -14 -16 -23 -31 -19 -35 3 -4 20 9 37 28 22 25 29 29
24 14 -4 -14 0 -26 14 -39 18 -16 20 -17 26 -1 4 10 12 15 20 12 8 -3 11 2 9
16 -3 12 0 39 6 62 16 65 18 86 7 86 -6 0 -4 7 3 17 10 11 10 14 2 9 -8 -4
-13 -2 -13 4 0 7 -7 10 -14 7 -16 -6 -32 26 -28 53 3 13 2 13 -7 0 -5 -8 -8
-17 -5 -22 8 -12 -36 -30 -54 -22 -9 4 -23 8 -30 10 -8 1 -17 6 -20 10 -4 4 1
4 12 0 14 -5 17 -3 12 11 -4 12 0 10 12 -6 14 -17 24 -22 41 -16 12 3 19 11
15 16 -3 6 -11 6 -17 2 -8 -6 -25 4 -49 28 -30 29 -34 38 -22 43 10 4 13 2 8
-6 -4 -7 -3 -8 4 -4 8 5 10 1 5 -11 -5 -15 -3 -16 8 -5 10 9 10 15 1 24 -7 7
-12 20 -12 30 0 10 -4 18 -9 18 -5 0 -7 -9 -4 -19 4 -15 0 -19 -14 -17 -10 2
-19 13 -21 24 -2 12 -8 22 -14 22 -6 0 -9 3 -5 6 3 3 -7 20 -23 38 -29 30 -37
55 -23 69 3 4 12 2 20 -4 8 -7 13 -8 13 -1 0 5 -7 13 -16 16 -8 3 -12 10 -9
16 3 5 1 10 -5 10 -7 0 -9 -7 -6 -15 3 -9 -1 -18 -9 -21 -8 -4 -12 -11 -9 -18
4 -6 -5 1 -19 16 -15 15 -40 35 -57 44 -16 10 -30 25 -30 32 0 12 -2 12 -17 1
-14 -12 -15 -12 -11 1 3 8 -4 25 -15 37 -16 19 -18 25 -7 38 7 8 9 15 5 15 -9
0 -44 -43 -45 -55 0 -5 4 -4 9 4 7 11 13 9 32 -9 21 -20 22 -22 4 -16 -11 4
-31 10 -45 13 -14 2 -33 11 -42 20 -15 13 -18 13 -18 2 0 -11 -2 -11 -9 -1 -4
7 -12 12 -17 11 -15 -4 -57 12 -78 30 -11 9 -16 11 -13 4 4 -6 3 -14 -3 -18
-5 -3 -10 -1 -10 4 0 6 -3 10 -7 10 -5 -1 -17 -1 -28 0 -18 1 -17 4 8 26 15
14 24 25 20 26 -4 0 1 4 12 9 14 6 15 9 5 9 -16 1 -31 -14 -63 -59 -9 -13 -17
-19 -17 -13 0 7 -7 10 -17 6 -10 -4 -14 -2 -10 4 7 11 -12 35 -58 73 -19 15
-30 34 -30 49 0 13 -6 26 -12 28 -7 3 -13 0 -13 -7 0 -6 5 -8 10 -5 6 3 10 1
10 -4 0 -6 -6 -11 -12 -11 -9 0 -9 -3 -3 -8 17 -12 12 -25 -28 -67 -20 -21
-37 -43 -37 -47 0 -5 -8 -4 -18 1 -12 6 -22 7 -28 1 -6 -6 -26 5 -54 30 -24
22 -46 38 -48 36 -2 -2 13 -19 33 -38 l37 -34 -28 1 c-16 0 -46 -3 -68 -7 -23
-5 -43 -5 -50 1 -9 7 -19 6 -33 -4 -11 -8 -33 -16 -48 -19 -15 -3 -30 -7 -33
-10 -6 -6 -31 24 -32 38 0 5 9 1 20 -9 31 -28 24 -9 -9 22 -37 36 -54 70 -41
78 6 4 8 11 5 16 -4 5 -1 9 4 9 6 0 11 5 11 11 0 5 -4 7 -10 4 -17 -11 -11 7
8 21 20 16 14 18 -11 3z m524 -107 c21 -22 36 -42 32 -45 -3 -4 -23 11 -44 32
-34 34 -39 37 -44 20 -4 -11 -11 -19 -16 -19 -5 0 -9 -5 -9 -11 0 -8 4 -8 14
0 11 9 15 9 20 -1 3 -7 3 -3 0 10 -7 28 -5 28 29 -7 21 -22 23 -28 10 -26 -10
2 -18 4 -18 5 0 7 -67 4 -71 -2 -3 -5 -10 -6 -15 -3 -7 5 57 85 68 85 3 0 22
-17 44 -38z m-906 -322 c4 -6 -1 -7 -12 -3 -15 6 -16 4 -6 -8 10 -12 8 -15 -7
-15 -15 0 -16 4 -9 18 11 20 25 23 34 8z m-10 -58 c-3 -3 -11 0 -18 7 -9 10
-8 11 6 5 10 -3 15 -9 12 -12z m-42 -13 c-4 -15 -8 -17 -14 -8 -6 11 4 28 18
29 0 0 -1 -9 -4 -21z m57 -5 c0 -8 -19 -13 -24 -6 -3 5 1 9 9 9 8 0 15 -2 15
-3z m15 -37 c0 -19 -5 -34 -12 -34 -8 0 -9 8 -2 24 5 13 6 23 3 23 -3 0 -2 5
1 10 9 15 11 13 10 -23z m1535 -12 c0 -5 -5 -3 -10 5 -5 8 -10 20 -10 25 0 6
5 3 10 -5 5 -8 10 -19 10 -25z m-1581 -3 c7 -14 6 -19 -4 -19 -7 0 -11 7 -7
15 4 11 1 13 -8 7 -9 -5 -11 -4 -6 3 10 16 14 15 25 -6z m-74 -13 c-3 -12 -7
-24 -10 -27 -3 -3 -3 5 -1 19 6 30 5 29 10 29 3 0 3 -10 1 -21z m45 -22 c0 -5
-7 -7 -15 -3 -8 3 -15 0 -15 -6 0 -6 -3 -9 -6 -5 -3 3 -4 10 0 15 7 12 36 11
36 -1z m-87 -22 c-3 -9 -8 -14 -10 -11 -3 3 -2 9 2 15 9 16 15 13 8 -4z m1737
-5 c7 -14 7 -20 0 -20 -5 0 -10 8 -10 17 0 13 -3 14 -12 5 -9 -9 -9 -16 4 -29
14 -13 20 -14 33 -3 12 10 13 16 4 26 -7 9 -8 14 -1 14 18 0 22 -29 6 -45 -12
-12 -12 -15 -2 -15 16 0 49 36 41 44 -4 3 -1 6 5 6 19 0 14 -17 -10 -40 -28
-26 -41 -25 -73 3 -18 15 -24 28 -20 40 9 23 22 22 35 -3z m70 16 c0 -2 -7 -6
-15 -10 -8 -3 -15 -1 -15 4 0 6 7 10 15 10 8 0 15 -2 15 -4z m-1787 -21 c-3
-9 -8 -14 -10 -11 -3 3 -2 9 2 15 9 16 15 13 8 -4z m1817 -30 c-10 -12 -10
-18 0 -30 7 -9 8 -15 2 -15 -5 0 -12 7 -16 15 -7 19 3 45 16 45 6 0 5 -6 -2
-15z m-1630 -5 c8 -5 11 -10 5 -10 -5 0 -17 5 -25 10 -8 5 -10 10 -5 10 6 0
17 -5 25 -10z m-153 -26 c-3 -3 -12 -4 -19 -1 -8 3 -5 6 6 6 11 1 17 -2 13 -5z
m1683 -1 c0 -5 -11 -9 -25 -9 -14 -1 -22 2 -19 7 6 11 44 12 44 2z m84 -25
l18 -33 -26 30 c-31 36 -33 29 -5 -22 11 -21 14 -30 7 -20 -7 10 -21 28 -31
40 -14 16 -15 22 -5 29 20 12 22 10 42 -24z m-44 -18 c6 0 8 -5 5 -11 -8 -13
-35 19 -34 41 0 8 4 5 9 -7 5 -13 14 -23 20 -23z m-1770 26 c0 -2 -7 -7 -16
-10 -8 -3 -12 -2 -9 4 6 10 25 14 25 6z m40 -2 c0 -8 -19 -13 -24 -6 -3 5 1 9
9 9 8 0 15 -2 15 -3z m-37 -35 c-4 -15 -8 -17 -14 -8 -6 11 4 28 18 29 0 0 -1
-9 -4 -21z m-25 -24 c-3 -3 -9 2 -12 12 -6 14 -5 15 5 6 7 -7 10 -15 7 -18z
m236 6 c4 -5 -3 -7 -14 -4 -23 6 -26 13 -6 13 8 0 17 -4 20 -9z m1604 -21 c16
-1 16 -1 0 -11 -29 -17 -32 -15 -35 16 -2 24 0 27 8 13 6 -10 18 -18 27 -18z
m-1776 3 c-5 -10 -7 -24 -5 -30 3 -7 -1 -13 -8 -13 -7 0 -9 3 -6 7 4 3 1 13
-6 21 -8 10 -8 13 -1 9 7 -4 14 0 18 8 3 8 8 15 11 15 3 0 2 -8 -3 -17z m153
-22 c3 -5 0 -13 -6 -17 -8 -5 -9 -3 -4 6 6 10 4 12 -9 7 -10 -4 -15 -3 -11 3
8 13 22 13 30 1z m-181 -37 c3 -9 -1 -11 -11 -7 -12 5 -14 3 -8 -8 5 -8 4 -11
0 -6 -5 4 -10 13 -11 21 -2 16 24 17 30 0z m140 -16 c-3 -4 -11 -8 -17 -7 -9
0 -9 2 0 5 7 3 9 13 6 22 -4 14 -3 14 5 2 6 -8 8 -18 6 -22z m81 22 c3 -5 1
-10 -4 -10 -6 0 -11 5 -11 10 0 6 2 10 4 10 3 0 8 -4 11 -10z m1540 -10 c3 -5
1 -10 -4 -10 -6 0 -11 5 -11 10 0 6 2 10 4 10 3 0 8 -4 11 -10z m-1573 -12
c-8 -8 -8 -17 -1 -31 9 -15 8 -18 -2 -12 -9 6 -11 4 -6 -7 6 -17 -16 -19 -30
-3 -5 4 -2 5 6 0 11 -6 13 -4 8 9 -5 11 -3 15 5 10 7 -5 9 -2 5 8 -5 14 9 38
22 38 3 0 0 -5 -7 -12z m1474 -39 c-3 -23 -1 -29 9 -25 9 3 12 0 8 -10 -4 -11
-9 -12 -19 -3 -7 6 -17 8 -22 5 -5 -3 -9 1 -9 8 0 9 7 12 16 8 14 -5 14 -4 1
13 -9 11 -10 16 -2 11 7 -4 12 -1 12 8 0 9 3 16 6 16 3 0 3 -14 0 -31z m81 16
c0 -8 -4 -15 -9 -15 -4 0 -8 7 -8 15 0 8 4 15 8 15 5 0 9 -7 9 -15z m-1641
-41 c0 -13 -2 -22 -5 -19 -3 3 -6 17 -7 31 0 13 2 22 5 19 3 -3 6 -17 7 -31z
m139 26 c3 -5 1 -10 -4 -10 -6 0 -11 5 -11 10 0 6 2 10 4 10 3 0 8 -4 11 -10z
m1475 -2 c0 -4 -9 -8 -20 -8 -11 0 -20 4 -20 8 0 4 9 8 20 8 11 0 20 -4 20 -8z
m-1685 -18 c6 -1 12 -4 15 -7 3 -4 -1 -2 -9 2 -10 6 -13 4 -9 -6 4 -10 -1 -15
-13 -15 -12 0 -15 4 -9 10 6 6 3 14 -8 23 -16 13 -15 13 3 5 11 -6 25 -11 30
-12z m183 -35 c-3 -3 -9 2 -12 12 -6 14 -5 15 5 6 7 -7 10 -15 7 -18z m-135 2
c4 3 7 1 7 -5 0 -17 -16 -15 -31 6 -12 15 -12 16 2 5 9 -7 19 -10 22 -6z m164
-2 c0 -8 -4 -12 -9 -9 -5 3 -6 10 -3 15 9 13 12 11 12 -6z m-89 -20 c-3 -3 -9
2 -12 12 -6 14 -5 15 5 6 7 -7 10 -15 7 -18z m1469 3 c-3 -8 -6 -5 -6 6 -1 11
2 17 5 13 3 -3 4 -12 1 -19z m43 12 c8 -5 11 -10 5 -10 -5 0 -17 5 -25 10 -8
5 -10 10 -5 10 6 0 17 -5 25 -10z m-15 -20 c3 -5 1 -10 -4 -10 -6 0 -11 5 -11
10 0 6 2 10 4 10 3 0 8 -4 11 -10z m-1411 -20 c-6 -6 -15 -5 -24 1 -13 9 -12
10 3 5 9 -3 17 0 17 6 0 6 3 8 7 5 4 -4 2 -12 -3 -17z m106 4 c0 -8 -19 -13
-24 -6 -3 5 1 9 9 9 8 0 15 -2 15 -3z m1280 -3 c0 -4 -10 -12 -22 -20 -20 -13
-22 -12 -11 1 7 8 11 17 8 20 -3 2 2 5 10 5 8 0 15 -3 15 -6z m-1439 -30 c-6
-10 -7 -22 -3 -27 4 -5 0 -3 -9 4 -9 6 -19 9 -22 5 -4 -3 -7 -1 -7 6 0 7 6 11
14 8 8 -3 17 1 20 9 3 8 8 14 11 14 3 0 1 -8 -4 -19z m-108 -11 c3 -11 1 -18
-4 -14 -5 3 -9 12 -9 20 0 20 7 17 13 -6z m37 16 c0 -2 -7 -7 -16 -10 -8 -3
-12 -2 -9 4 6 10 25 14 25 6z m145 -16 c3 -5 1 -10 -4 -10 -6 0 -11 5 -11 10
0 6 2 10 4 10 3 0 8 -4 11 -10z m1390 -10 c-9 -15 -45 -32 -45 -22 0 5 10 14
23 20 29 14 29 14 22 2z m-1508 -25 c0 -22 -14 -18 -20 4 -3 13 0 18 7 15 7
-3 13 -11 13 -19z m99 -4 c0 -14 -4 -17 -12 -11 -6 6 -14 7 -17 3 -4 -3 -7 -1
-7 5 0 6 8 13 18 15 9 3 17 5 17 6 1 0 1 -8 1 -18z m64 -6 c0 -1 -9 -5 -19 -8
-13 -3 -18 -1 -14 9 4 10 33 10 33 -1z m-121 -22 c-6 -7 -9 -19 -6 -26 3 -8
-1 -14 -8 -14 -8 0 -11 7 -7 15 3 9 1 13 -5 9 -5 -3 -10 0 -10 7 0 8 7 12 15
8 9 -3 13 -1 9 5 -3 5 0 10 8 10 11 0 12 -4 4 -14z m98 -18 c5 -4 2 -5 -6 0
-10 6 -13 4 -9 -7 4 -8 1 -15 -7 -15 -8 0 -11 7 -7 15 4 11 1 13 -8 7 -8 -5
-11 -4 -7 3 8 12 32 10 44 -3z m57 -21 c3 -8 2 -12 -4 -9 -6 3 -10 10 -10 16
0 14 7 11 14 -7z m-112 -22 c4 -12 -1 -18 -13 -18 -12 0 -15 4 -9 12 6 6 7 14
3 17 -3 4 -2 7 4 7 6 0 13 -8 15 -18z m72 10 c2 -4 -5 -9 -17 -9 -17 -2 -19 0
-7 7 18 12 18 12 24 2z m1246 -6 c0 -3 -4 -8 -10 -11 -5 -3 -10 -1 -10 4 0 6
5 11 10 11 6 0 10 -2 10 -4z m-1365 -26 c10 -11 16 -20 13 -20 -3 0 -13 9 -23
20 -10 11 -16 20 -13 20 3 0 13 -9 23 -20z m80 -10 c3 -5 1 -10 -4 -10 -6 0
-11 5 -11 10 0 6 2 10 4 10 3 0 8 -4 11 -10z m115 4 c0 -8 -19 -13 -24 -6 -3
5 1 9 9 9 8 0 15 -2 15 -3z m-23 -38 c-10 -8 -18 -18 -17 -22 1 -5 -4 -10 -12
-12 -9 -2 -8 0 2 7 14 10 7 16 -13 12 -5 -1 -6 3 -2 9 3 6 10 8 14 6 4 -3 13
-1 21 5 23 14 27 10 7 -5z m50 -18 c4 -28 -6 -18 -12 12 -2 12 -1 20 2 16 4
-4 8 -16 10 -28z m-12 -28 c3 -6 -1 -7 -9 -4 -18 7 -21 14 -7 14 6 0 13 -4 16
-10z m-90 -10 c-3 -5 -12 -10 -18 -10 -7 0 -6 4 3 10 19 12 23 12 15 0z m38
-17 c-3 -7 -6 -13 -8 -13 -2 0 -5 6 -8 13 -3 8 1 14 8 14 7 0 11 -6 8 -14z
m44 -8 c0 -22 -14 -18 -20 4 -3 13 0 18 7 15 7 -3 13 -11 13 -19z m60 0 c0 -8
-5 -11 -10 -8 -6 4 -8 0 -4 -10 4 -11 2 -14 -9 -10 -13 5 -13 8 2 24 21 23 21
23 21 4z m27 -23 c3 -5 -1 -9 -9 -9 -8 0 -12 4 -9 9 3 4 7 8 9 8 2 0 6 -4 9
-8z m-59 -20 c-3 -3 -11 0 -18 7 -9 10 -8 11 6 5 10 -3 15 -9 12 -12z m25 -18
c0 -8 -19 -13 -24 -6 -3 5 1 9 9 9 8 0 15 -2 15 -3z m73 -26 c-2 -5 -11 -8
-19 -8 -9 0 -12 -5 -8 -12 4 -7 3 -9 -1 -5 -17 15 -12 32 10 32 13 0 21 -3 18
-7z m14 -28 c-1 -11 -5 -20 -9 -20 -10 0 -10 4 -2 24 8 22 13 20 11 -4z m43
-24 c0 -3 -4 -8 -10 -11 -5 -3 -10 -1 -10 4 0 6 5 11 10 11 6 0 10 -2 10 -4z
m173 -61 c-3 -9 -8 -14 -10 -11 -3 3 -2 9 2 15 9 16 15 13 8 -4z m128 -42 c13
-16 12 -17 -3 -4 -10 7 -18 15 -18 17 0 8 8 3 21 -13z"/>
<path d="M1097 1829 c7 -7 15 -10 18 -7 3 3 -2 9 -12 12 -14 6 -15 5 -6 -5z"/>
<path d="M1191 1800 c-38 -37 -52 -45 -73 -41 -5 0 -8 -4 -8 -10 0 -6 7 -8 15
-5 45 18 50 18 29 -1 -19 -17 -20 -22 -8 -37 12 -17 14 -17 38 10 14 16 26 32
26 36 0 4 11 5 25 2 17 -3 27 1 31 11 3 8 9 13 13 11 3 -2 15 8 25 21 l19 26
-31 -23 c-18 -13 -32 -27 -32 -32 0 -4 -5 -8 -11 -8 -5 0 -7 5 -4 10 3 6 1 10
-4 10 -6 0 -11 -3 -11 -8 0 -4 -14 -8 -30 -8 -24 -1 -28 1 -20 12 7 7 17 11
25 8 7 -3 16 -1 19 5 4 6 13 8 21 5 8 -4 18 1 21 10 3 9 10 13 15 10 5 -3 9 0
9 5 0 16 -36 8 -58 -12 -29 -26 -38 -20 -12 8 37 39 18 29 -29 -15z m69 10 c0
-5 -5 -10 -11 -10 -5 0 -7 5 -4 10 3 6 8 10 11 10 2 0 4 -4 4 -10z m-79 -81
c-12 -12 -25 -18 -29 -14 -4 4 4 15 17 26 31 25 41 15 12 -12z"/>
<path d="M514 1815 c-4 -8 -10 -12 -16 -9 -5 3 -4 -3 4 -15 13 -22 30 -23 34
-3 1 7 0 8 -3 2 -7 -15 -23 -2 -17 15 4 8 11 12 17 8 6 -3 7 -1 3 5 -10 16
-15 15 -22 -3z"/>
<path d="M595 1819 c-4 -6 -4 -13 -1 -16 3 -4 6 -1 6 6 0 7 5 9 10 6 6 -3 10
-1 10 4 0 14 -17 14 -25 0z"/>
<path d="M935 1810 c-4 -6 1 -7 11 -3 13 5 15 3 9 -7 -5 -9 -4 -11 3 -6 7 4
12 11 12 17 0 12 -27 12 -35 -1z"/>
<path d="M895 1799 c-11 -16 -1 -19 13 -3 7 8 8 14 3 14 -5 0 -13 -5 -16 -11z"/>
<path d="M1063 1797 c1 -10 6 -17 12 -17 5 1 13 -7 17 -17 7 -17 8 -17 5 0 -1
10 -6 17 -12 17 -5 -1 -13 7 -17 17 -7 17 -8 17 -5 0z"/>
<path d="M1100 1798 c0 -11 12 -10 30 2 12 7 10 9 -8 7 -12 0 -22 -5 -22 -9z"/>
<path d="M1325 1797 c-6 -7 -17 -22 -25 -33 -8 -12 -19 -22 -23 -22 -13 -2
-39 -32 -28 -32 5 0 15 8 20 18 6 9 11 13 11 9 0 -8 70 61 70 69 0 8 -16 3
-25 -9z"/>
<path d="M427 1777 c-18 -18 -18 -19 2 -38 12 -11 21 -15 21 -9 0 6 -7 13 -15
17 -14 5 -14 8 1 24 23 25 14 31 -9 6z"/>
<path d="M610 1790 c0 -5 5 -10 11 -10 5 0 7 5 4 10 -3 6 -8 10 -11 10 -2 0
-4 -4 -4 -10z"/>
<path d="M975 1790 c-3 -5 -1 -10 4 -10 6 0 11 5 11 10 0 6 -2 10 -4 10 -3 0
-8 -4 -11 -10z"/>
<path d="M1380 1790 c8 -5 20 -10 25 -10 6 0 3 5 -5 10 -8 5 -19 10 -25 10 -5
0 -3 -5 5 -10z"/>
<path d="M580 1771 c-13 -25 -13 -31 2 -31 6 0 8 3 5 6 -3 4 -2 15 4 25 5 11
7 19 5 19 -3 0 -10 -9 -16 -19z"/>
<path d="M910 1786 c0 -2 7 -6 15 -10 8 -3 15 -1 15 4 0 6 -7 10 -15 10 -8 0
-15 -2 -15 -4z"/>
<path d="M1120 1780 c-13 -8 -12 -10 3 -10 9 0 17 5 17 10 0 12 -1 12 -20 0z"/>
<path d="M630 1768 c-12 -8 -12 -9 2 -4 11 3 23 -3 33 -17 8 -12 15 -17 16
-12 0 6 4 1 9 -10 6 -14 9 -15 9 -5 1 14 -18 36 -45 52 -5 4 -16 2 -24 -4z"/>
<path d="M730 1772 c0 -5 7 -17 16 -28 15 -18 15 -18 5 2 -6 12 -7 24 -4 28 3
3 1 6 -5 6 -7 0 -12 -4 -12 -8z"/>
<path d="M761 1764 c0 -11 3 -14 6 -6 3 7 2 16 -1 19 -3 4 -6 -2 -5 -13z"/>
<path d="M950 1770 c0 -6 7 -10 15 -10 8 0 15 2 15 4 0 2 -7 6 -15 10 -8 3
-15 1 -15 -4z"/>
<path d="M1330 1760 c-13 -11 -18 -20 -12 -20 6 0 18 7 26 15 12 12 20 13 35
5 11 -6 19 -16 17 -23 -1 -6 -1 -9 1 -4 3 4 9 5 14 1 5 -3 9 -1 9 3 0 8 -51
43 -63 43 -2 0 -14 -9 -27 -20z"/>
<path d="M1422 1773 c-9 -3 -3 -12 17 -24 17 -10 31 -23 31 -29 0 -5 7 -10 16
-10 11 0 8 6 -10 23 -14 13 -23 27 -19 31 4 4 -1 4 -11 0 -14 -5 -17 -4 -12 4
8 13 8 13 -12 5z"/>
<path d="M601 1754 c0 -11 3 -14 6 -6 3 7 2 16 -1 19 -3 4 -6 -2 -5 -13z"/>
<path d="M881 1753 c8 -10 20 -22 27 -26 6 -4 12 -13 12 -18 0 -6 -4 -7 -10
-4 -5 3 -10 1 -10 -4 0 -16 20 -13 26 3 3 8 -6 26 -21 40 -29 29 -44 35 -24 9z"/>
<path d="M905 1760 c3 -5 8 -10 11 -10 2 0 4 5 4 10 0 6 -5 10 -11 10 -5 0 -7
-4 -4 -10z"/>
<path d="M990 1764 c0 -5 -12 -16 -26 -25 -24 -14 -24 -17 -8 -23 10 -4 15 -4
12 0 -4 3 3 15 15 24 12 10 19 22 15 26 -5 4 -8 3 -8 -2z"/>
<path d="M930 1750 c0 -5 5 -10 11 -10 5 0 7 5 4 10 -3 6 -8 10 -11 10 -2 0
-4 -4 -4 -10z"/>
<path d="M380 1741 c0 -5 7 -11 15 -15 8 -3 15 -1 15 3 0 5 -7 11 -15 15 -8 3
-15 1 -15 -3z"/>
<path d="M620 1738 c0 -4 5 -8 10 -8 6 0 23 -12 38 -26 22 -21 23 -25 7 -19
-11 4 -26 8 -34 9 -8 2 -19 10 -26 19 -7 9 -18 17 -24 17 -7 0 2 -13 20 -29
19 -18 38 -27 48 -23 14 5 14 4 2 -12 -13 -16 -13 -16 15 0 l29 17 -30 31
c-29 30 -55 42 -55 24z"/>
<path d="M1348 1736 c-10 -7 -15 -16 -11 -19 3 -4 -2 -7 -13 -8 -11 0 -14 -3
-6 -6 7 -3 24 7 37 21 26 28 22 34 -7 12z"/>
<path d="M770 1725 c0 -8 2 -15 4 -15 2 0 6 7 10 15 3 8 1 15 -4 15 -6 0 -10
-7 -10 -15z"/>
<path d="M1430 1730 c0 -5 5 -10 11 -10 5 0 7 5 4 10 -3 6 -8 10 -11 10 -2 0
-4 -4 -4 -10z"/>
<path d="M1502 1726 c7 -8 17 -11 22 -8 5 3 6 -3 2 -14 -6 -16 -5 -17 6 -6 11
11 10 16 -6 28 -25 18 -41 18 -24 0z"/>
<path d="M350 1720 c-13 -8 -12 -10 3 -10 9 0 17 5 17 10 0 12 -1 12 -20 0z"/>
<path d="M421 1714 c0 -11 3 -14 6 -6 3 7 2 16 -1 19 -3 4 -6 -2 -5 -13z"/>
<path d="M460 1720 c0 -5 5 -10 11 -10 5 0 7 5 4 10 -3 6 -8 10 -11 10 -2 0
-4 -4 -4 -10z"/>
<path d="M1294 1715 c-4 -8 -10 -13 -14 -10 -4 3 -10 -2 -14 -10 -3 -8 0 -17
7 -21 7 -4 9 -4 5 0 -4 5 5 19 19 32 14 13 21 24 14 24 -6 0 -14 -7 -17 -15z"/>
<path d="M1365 1720 c-3 -5 -1 -10 4 -10 6 0 11 5 11 10 0 6 -2 10 -4 10 -3 0
-8 -4 -11 -10z"/>
<path d="M750 1710 c0 -5 9 -14 20 -20 11 -6 20 -9 20 -8 0 2 -9 11 -20 21
-11 9 -20 13 -20 7z"/>
<path d="M790 1709 c0 -5 4 -8 9 -5 5 3 14 -1 21 -9 7 -8 17 -15 23 -15 5 0 0
9 -13 20 -26 22 -40 26 -40 9z"/>
<path d="M1410 1710 c0 -5 5 -10 11 -10 5 0 7 5 4 10 -3 6 -8 10 -11 10 -2 0
-4 -4 -4 -10z"/>
<path d="M380 1700 c0 -5 7 -7 15 -4 8 4 15 8 15 10 0 2 -7 4 -15 4 -8 0 -15
-4 -15 -10z"/>
<path d="M446 1697 c3 -10 9 -15 12 -12 3 3 0 11 -7 18 -10 9 -11 8 -5 -6z"/>
<path d="M940 1700 c0 -5 5 -10 11 -10 5 0 7 5 4 10 -3 6 -8 10 -11 10 -2 0
-4 -4 -4 -10z"/>
<path d="M1384 1695 c-4 -8 -10 -15 -16 -15 -5 0 -6 5 -3 10 3 6 1 10 -5 10
-7 0 -10 -6 -8 -12 5 -15 58 -21 58 -7 0 6 -5 7 -12 3 -8 -5 -9 -2 -5 9 3 10
4 17 1 17 -2 0 -7 -7 -10 -15z"/>
<path d="M1445 1700 c3 -5 8 -10 11 -10 2 0 4 5 4 10 0 6 -5 10 -11 10 -5 0
-7 -4 -4 -10z"/>
<path d="M1550 1706 c0 -2 7 -6 15 -10 8 -3 15 -1 15 4 0 6 -7 10 -15 10 -8 0
-15 -2 -15 -4z"/>
<path d="M333 1680 c1 -11 5 -20 9 -20 3 0 6 9 5 20 -1 11 -5 20 -9 20 -3 0
-6 -9 -5 -20z"/>
<path d="M361 1684 c0 -11 3 -14 6 -6 3 7 2 16 -1 19 -3 4 -6 -2 -5 -13z"/>
<path d="M1220 1690 c-8 -5 -12 -11 -10 -14 3 -2 14 2 24 10 22 15 10 19 -14
4z"/>
<path d="M1470 1692 c0 -13 47 -62 54 -55 3 3 6 1 6 -5 0 -7 5 -12 11 -12 5 0
8 4 5 9 -4 5 -3 11 1 14 5 2 2 2 -5 0 -8 -1 -27 10 -43 26 -16 16 -29 26 -29
23z"/>
<path d="M1490 1696 c0 -2 7 -9 15 -16 13 -11 14 -10 9 4 -5 14 -24 23 -24 12z"/>
<path d="M1586 1683 c-6 -14 -5 -15 5 -6 7 7 10 15 7 18 -3 3 -9 -2 -12 -12z"/>
<path d="M286 1682 c-3 -4 4 -9 15 -9 23 -2 25 3 4 10 -8 4 -16 3 -19 -1z"/>
<path d="M377 1664 c-16 -13 -27 -28 -25 -32 2 -4 17 8 35 25 38 39 31 44 -10
7z"/>
<path d="M1294 1678 c-3 -5 -1 -15 6 -21 10 -9 12 -8 7 6 -4 9 -2 17 2 17 5 0
11 -5 13 -12 3 -8 6 -7 10 3 7 17 -28 24 -38 7z"/>
<path d="M1424 1681 c3 -5 -1 -14 -9 -21 -8 -7 -15 -20 -14 -29 0 -13 2 -13 6
-1 4 8 12 21 20 28 16 16 17 32 2 32 -5 0 -8 -4 -5 -9z"/>
<path d="M1535 1680 c-4 -6 -4 -14 -1 -17 3 -4 6 -1 6 5 0 7 5 12 11 12 5 0 7
-4 4 -10 -3 -5 -1 -10 5 -10 14 0 8 22 -7 27 -6 2 -14 -1 -18 -7z"/>
<path d="M1633 1658 c-1 -11 9 -30 23 -41 l25 -22 -21 -22 c-11 -13 -17 -23
-12 -23 6 0 17 11 26 24 15 23 14 26 -9 48 -30 28 -32 43 -5 28 27 -15 25 -6
-3 13 -21 14 -23 13 -24 -5z"/>
<path d="M1340 1660 c0 -5 5 -10 11 -10 5 0 7 5 4 10 -3 6 -8 10 -11 10 -2 0
-4 -4 -4 -10z"/>
<path d="M1584 1654 c-18 -15 -18 -15 2 -5 12 6 24 7 28 4 3 -3 6 -1 6 5 0 16
-12 15 -36 -4z"/>
<path d="M291 1644 c0 -11 3 -14 6 -6 3 7 2 16 -1 19 -3 4 -6 -2 -5 -13z"/>
<path d="M314 1637 c1 -21 26 -38 26 -17 0 6 -4 8 -10 5 -5 -3 -10 -2 -10 4 0
5 5 11 12 13 8 3 7 6 -4 10 -11 5 -15 0 -14 -15z"/>
<path d="M1376 1645 c4 -8 8 -15 10 -15 2 0 4 7 4 15 0 8 -4 15 -10 15 -5 0
-7 -7 -4 -15z"/>
<path d="M271 1638 c-1 -9 7 -22 17 -28 16 -10 16 -10 0 -20 -10 -6 -18 -15
-18 -21 0 -5 10 0 23 11 20 19 20 23 6 33 -9 7 -18 19 -22 27 -4 12 -6 12 -6
-2z"/>
<path d="M1470 1646 c0 -4 18 -24 40 -45 22 -21 37 -41 33 -45 -4 -4 1 -4 11
0 15 6 17 4 11 -6 -5 -8 -4 -11 3 -6 5 3 12 1 14 -5 3 -9 10 -9 26 0 13 7 20
16 17 21 -3 5 0 10 7 13 9 2 8 4 -1 3 -8 -1 -13 -5 -12 -10 4 -12 -21 -26 -32
-19 -5 3 -3 10 4 15 11 7 10 8 -4 4 -11 -4 -27 3 -41 17 -51 49 -76 70 -76 63z"/>
<path d="M1598 1633 c7 -3 16 -2 19 1 4 3 -2 6 -13 5 -11 0 -14 -3 -6 -6z"/>
<path d="M1685 1631 c-3 -6 2 -14 11 -19 15 -8 14 -13 -11 -46 -15 -20 -25
-39 -21 -43 3 -3 6 -2 6 3 0 5 13 25 30 44 29 34 29 35 9 45 -11 6 -16 14 -13
18 4 4 5 7 1 7 -3 0 -8 -4 -12 -9z"/>
<path d="M1565 1620 c3 -5 8 -10 11 -10 2 0 4 5 4 10 0 6 -5 10 -11 10 -5 0
-7 -4 -4 -10z"/>
<path d="M250 1611 c13 -10 13 -12 0 -22 -13 -9 -13 -10 0 -6 8 2 15 10 15 17
0 7 -7 15 -15 17 -13 4 -13 3 0 -6z"/>
<path d="M1590 1615 c0 -5 5 -17 10 -25 5 -8 10 -10 10 -5 0 6 -5 17 -10 25
-5 8 -10 11 -10 5z"/>
<path d="M1616 1605 c4 -8 8 -15 10 -15 2 0 4 7 4 15 0 8 -4 15 -10 15 -5 0
-7 -7 -4 -15z"/>
<path d="M1545 1600 c3 -5 8 -10 11 -10 2 0 4 5 4 10 0 6 -5 10 -11 10 -5 0
-7 -4 -4 -10z"/>
<path d="M1640 1600 c0 -5 5 -10 11 -10 5 0 7 5 4 10 -3 6 -8 10 -11 10 -2 0
-4 -4 -4 -10z"/>
<path d="M1570 1590 c0 -5 5 -10 11 -10 5 0 7 5 4 10 -3 6 -8 10 -11 10 -2 0
-4 -4 -4 -10z"/>
<path d="M1706 1554 c-32 -38 -33 -35 32 -102 12 -12 22 -27 22 -31 0 -5 15 6
34 25 l35 35 -25 24 c-13 13 -24 20 -24 15 0 -5 7 -16 16 -24 14 -14 13 -18
-12 -43 -21 -22 -25 -24 -19 -8 4 11 7 29 6 40 0 11 -1 35 -2 53 -1 17 -6 32
-11 32 -5 0 -6 -4 -3 -10 3 -5 1 -10 -4 -10 -6 0 -11 -5 -11 -11 0 -5 4 -8 9
-5 5 3 9 -5 9 -19 0 -28 -15 -23 -28 9 -6 14 -9 16 -9 5 -1 -9 8 -26 19 -39
35 -40 21 -47 -16 -7 -35 37 -35 38 -18 55 28 26 48 52 38 51 -5 0 -22 -16
-38 -35z"/>
<path d="M225 1560 c-2 -3 5 -7 16 -7 10 -1 19 2 19 6 0 9 -29 10 -35 1z"/>
<path d="M291 1554 c0 -11 3 -14 6 -6 3 7 2 16 -1 19 -3 4 -6 -2 -5 -13z"/>
<path d="M269 1548 c-3 -6 -6 -48 -4 -48 1 0 9 8 16 17 12 14 12 16 0 8 -11
-6 -13 -4 -8 8 5 13 1 25 -4 15z"/>
<path d="M1605 1520 c-3 -5 -1 -10 4 -10 6 0 11 5 11 10 0 6 -2 10 -4 10 -3 0
-8 -4 -11 -10z"/>
<path d="M1645 1474 c2 -11 4 -21 4 -23 1 -2 8 2 16 9 11 9 18 8 36 -9 34 -31
42 -25 11 7 -15 16 -32 25 -38 20 -6 -4 -15 -3 -22 4 -8 8 -10 6 -7 -8z"/>
<path d="M1806 1434 c-37 -37 -47 -43 -52 -30 -3 9 -10 16 -16 16 -5 0 -7 -4
-3 -9 3 -5 0 -11 -7 -14 -7 -2 -5 -3 5 -1 10 1 20 -3 23 -10 5 -12 33 11 88
73 35 39 9 22 -38 -25z"/>
<path d="M1670 1441 c0 -5 5 -13 10 -16 6 -3 10 -2 10 4 0 5 -4 13 -10 16 -5
3 -10 2 -10 -4z"/>
<path d="M1854 1442 c3 -5 -6 -15 -19 -22 -13 -7 -22 -17 -19 -22 3 -4 -3 -8
-13 -9 -10 0 -13 -3 -6 -6 7 -2 26 9 43 25 32 32 36 42 19 42 -5 0 -8 -4 -5
-8z"/>
<path d="M1700 1420 c0 -5 5 -10 11 -10 5 0 7 5 4 10 -3 6 -8 10 -11 10 -2 0
-4 -4 -4 -10z"/>
<path d="M1873 1409 c3 -9 1 -21 -5 -27 -12 -12 -1 -35 13 -27 5 4 9 2 9 -4 0
-5 -4 -12 -9 -15 -11 -7 -43 28 -34 37 3 4 1 7 -5 7 -19 0 -14 -16 13 -41 24
-24 34 -46 15 -34 -5 3 -10 1 -10 -4 0 -6 5 -11 12 -11 9 0 9 -3 0 -12 -7 -7
-12 -16 -12 -21 0 -5 6 -2 14 5 7 8 13 25 12 39 -1 13 2 29 7 36 11 15 -1 36
-15 27 -6 -4 -8 -1 -6 7 3 8 11 13 18 11 11 -2 10 1 0 15 -22 28 -24 29 -17
12z"/>
<path d="M1845 1400 c-3 -5 -1 -10 4 -10 6 0 11 5 11 10 0 6 -2 10 -4 10 -3 0
-8 -4 -11 -10z"/>
<path d="M1711 1364 c0 -11 3 -14 6 -6 3 7 2 16 -1 19 -3 4 -6 -2 -5 -13z"/>
<path d="M1813 1340 c39 -36 24 -40 -17 -5 -16 14 -32 25 -35 25 -3 -1 10 -14
29 -30 51 -44 83 -38 41 7 -11 12 -18 23 -16 25 2 2 -4 4 -15 5 -15 1 -12 -4
13 -27z"/>
<path d="M1770 1302 c0 -4 5 -13 12 -20 17 -17 28 -15 28 4 0 8 -4 12 -10 9
-5 -3 -10 -1 -10 4 0 6 -4 11 -10 11 -5 0 -10 -4 -10 -8z"/>
<path d="M1889 1253 c-13 -15 -12 -15 9 -4 23 12 28 21 13 21 -5 0 -15 -7 -22
-17z"/>
<path d="M1906 1042 c-3 -5 1 -9 9 -9 8 0 12 4 9 9 -3 4 -7 8 -9 8 -2 0 -6 -4
-9 -8z"/>
<path d="M1975 940 c3 -5 8 -10 11 -10 2 0 4 5 4 10 0 6 -5 10 -11 10 -5 0 -7
-4 -4 -10z"/>
<path d="M1970 899 c0 -5 5 -7 10 -4 6 3 10 8 10 11 0 2 -4 4 -10 4 -5 0 -10
-5 -10 -11z"/>
<path d="M1935 860 c-3 -5 -1 -10 4 -10 6 0 11 5 11 10 0 6 -2 10 -4 10 -3 0
-8 -4 -11 -10z"/>
<path d="M1746 762 c-2 -4 4 -8 14 -8 10 0 16 4 14 8 -3 4 -9 8 -14 8 -5 0
-11 -4 -14 -8z"/>
<path d="M1920 760 c-9 -6 -10 -10 -3 -10 6 0 15 5 18 10 8 12 4 12 -15 0z"/>
<path d="M1575 620 c-3 -5 -1 -10 4 -10 6 0 11 5 11 10 0 6 -2 10 -4 10 -3 0
-8 -4 -11 -10z"/>
<path d="M1839 593 c-13 -16 -12 -17 4 -4 16 13 21 21 13 21 -2 0 -10 -8 -17
-17z"/>
<path d="M1720 560 c-9 -6 -10 -10 -3 -10 6 0 15 5 18 10 8 12 4 12 -15 0z"/>
<path d="M1650 540 c0 -5 5 -10 11 -10 5 0 7 5 4 10 -3 6 -8 10 -11 10 -2 0
-4 -4 -4 -10z"/>
<path d="M1750 496 c0 -2 8 -10 18 -17 15 -13 16 -12 3 4 -13 16 -21 21 -21
13z"/>
<path d="M1695 460 c-3 -5 -1 -10 4 -10 6 0 11 5 11 10 0 6 -2 10 -4 10 -3 0
-8 -4 -11 -10z"/>
<path d="M1469 403 c-13 -16 -12 -17 4 -4 16 13 21 21 13 21 -2 0 -10 -8 -17
-17z"/>
<path d="M1559 393 c-13 -16 -12 -17 4 -4 16 13 21 21 13 21 -2 0 -10 -8 -17
-17z"/>
<path d="M1330 359 c0 -5 5 -7 10 -4 6 3 10 8 10 11 0 2 -4 4 -10 4 -5 0 -10
-5 -10 -11z"/>
<path d="M1495 340 c3 -5 8 -10 11 -10 2 0 4 5 4 10 0 6 -5 10 -11 10 -5 0 -7
-4 -4 -10z"/>
<path d="M1235 320 c3 -5 8 -10 11 -10 2 0 4 5 4 10 0 6 -5 10 -11 10 -5 0 -7
-4 -4 -10z"/>
<path d="M1330 300 c0 -5 5 -10 11 -10 5 0 7 5 4 10 -3 6 -8 10 -11 10 -2 0
-4 -4 -4 -10z"/>
<path d="M1153 275 c0 -8 4 -12 9 -9 5 3 6 10 3 15 -9 13 -12 11 -12 -6z"/>
<path d="M1255 260 c-3 -5 -1 -10 4 -10 6 0 11 5 11 10 0 6 -2 10 -4 10 -3 0
-8 -4 -11 -10z"/>
<path d="M1535 260 c-3 -5 -1 -10 4 -10 6 0 11 5 11 10 0 6 -2 10 -4 10 -3 0
-8 -4 -11 -10z"/>
<path d="M1490 219 c0 -5 5 -7 10 -4 6 3 10 8 10 11 0 2 -4 4 -10 4 -5 0 -10
-5 -10 -11z"/>
<path d="M1395 180 c-3 -5 -1 -10 4 -10 6 0 11 5 11 10 0 6 -2 10 -4 10 -3 0
-8 -4 -11 -10z"/>
<path d="M1196 167 c3 -10 9 -15 12 -12 3 3 0 11 -7 18 -10 9 -11 8 -5 -6z"/>
<path d="M1234 169 c-3 -6 -2 -15 3 -20 5 -5 9 -1 9 11 0 23 -2 24 -12 9z"/>
<path d="M1309 163 c-13 -16 -12 -17 4 -4 16 13 21 21 13 21 -2 0 -10 -8 -17
-17z"/>
</g>
</svg>
