<svg xmlns="http://www.w3.org/2000/svg" version="1.1" xmlns:xlink="http://www.w3.org/1999/xlink" x="0" y="0" xml:space="preserve" class="" viewBox="2 7 28 18"><g><path d="M23 17c-4.36 0-7.654-4.21-7.792-4.39C15.185 12.582 12.323 9 9 9c-4.13 0-4.996 3.114-5.03 3.247a1 1 0 0 1-1.94-.486C2.434 10.114 4.414 7 9 7c4.304 0 7.647 4.204 7.787 4.383C16.82 11.425 19.631 15 23 15c4.09 0 4.997-3.125 5.034-3.258a1 1 0 0 1 1.934.509C29.542 13.894 27.537 17 23 17zM23 25c-4.36 0-7.654-4.21-7.792-4.39C15.185 20.582 12.323 17 9 17c-4.13 0-4.996 3.114-5.03 3.247a.999.999 0 0 1-1.216.718.995.995 0 0 1-.725-1.204C2.435 18.114 4.415 15 9 15c4.304 0 7.647 4.204 7.787 4.383C16.82 19.425 19.631 23 23 23c4.09 0 4.997-3.125 5.034-3.258a1 1 0 0 1 1.934.509C29.542 21.894 27.537 25 23 25z" class=""></path></g></svg>