<svg xmlns="http://www.w3.org/2000/svg" version="1.1" xmlns:xlink="http://www.w3.org/1999/xlink" x="0" y="0" xml:space="preserve" class="" viewBox="3.22 3.2 25.58 25.58"><g><path d="M26.606 5.394a7.51 7.51 0 0 0-10.606 0l-.707.707a1 1 0 0 0 0 1.414l1.414 1.414a1 1 0 0 0 1.414 0l.707-.707a3.5 3.5 0 0 1 4.95 4.95l-3.536 3.535a3.522 3.522 0 0 1-4.712.217l-.768-.641a1 1 0 0 0-1.408.127l-1.282 1.535a1 1 0 0 0 .127 1.409l.767.64a7.458 7.458 0 0 0 10.105-.459L26.607 16a7.5 7.5 0 0 0 0-10.606z" opacity="1" class=""></path><path d="M15.293 23.071a1 1 0 0 0-1.414 0l-.707.707a3.5 3.5 0 0 1-4.95-4.95l3.536-3.535a3.52 3.52 0 0 1 4.712-.217l.768.641a1 1 0 0 0 1.408-.127l1.282-1.535a1 1 0 0 0-.127-1.409l-.767-.64a7.458 7.458 0 0 0-10.105.459L5.393 16A7.5 7.5 0 0 0 16 26.606l.707-.707a1 1 0 0 0 0-1.414z" opacity="1" data-original="#000000" class=""></path></g></svg>