<svg xmlns="http://www.w3.org/2000/svg" version="1.1" xmlns:xlink="http://www.w3.org/1999/xlink" x="0" y="0" xml:space="preserve" class="" viewBox="0 35 512 442"><g><path d="M492 279c11.046 0 20-8.954 20-20v-74c0-38.598-31.402-70-70-70h-10v-10c0-38.598-31.402-70-70-70H69C30.953 35 0 65.953 0 104v223c0 38.598 31.402 70 70 70h10v10c0 38.598 31.402 70 70 70h292.169C480.674 477 512 445.675 512 407.164l-.014-45.7a19.999 19.999 0 0 0-4.755-12.94l-94.664-111.47a19.956 19.956 0 0 0-15.3-7.054 20.002 20.002 0 0 0-15.261 7.139L291.19 345.287l-42.675-51.979A20.005 20.005 0 0 0 233.258 286c-5.939-.044-11.556 2.505-15.401 7.001l-97.854 114.441A32.453 32.453 0 0 1 120 407V184c0-15.99 13.009-29 29-29h293c16.542 0 30 13.458 30 30v74c0 11.046 8.954 20 20 20zm-259.254 58.14 42.813 52.146a20.004 20.004 0 0 0 15.347 7.309c5.948-.005 11.602-2.584 15.427-7.139l91.075-108.458 74.58 87.82.012 38.352c0 16.448-13.382 29.83-29.831 29.83H150c-.858 0-1.709-.036-2.549-.107zM80 184v173H70c-16.542 0-30-13.458-30-30V104c0-15.99 13.009-29 29-29h293c16.542 0 30 13.458 30 30v10H149c-38.047 0-69 30.953-69 69zm124 14c13.807 0 25 11.193 25 25s-11.193 25-25 25-25-11.193-25-25 11.193-25 25-25z" opacity="1" class=""></path></g></svg>